<?xml version="1.0" encoding="utf-8"?>
<!-- Generator: Adobe Illustrator 25.4.1, SVG Export Plug-In . SVG Version: 6.00 Build 0)  -->
<svg version="1.1" xmlns="http://www.w3.org/2000/svg" xmlns:xlink="http://www.w3.org/1999/xlink" x="0px" y="0px"
	 viewBox="0 0 1920 1080" style="enable-background:new 0 0 1920 1080;" xml:space="preserve">
<style type="text/css">
	.st0{display:none;}
	.st1{fill:#72BAE2;}
	.st2{fill:#F4EBE2;}
	.st3{fill:none;stroke:#000000;stroke-width:9;stroke-linecap:round;stroke-miterlimit:10;}
	.st4{fill:none;stroke:#000000;stroke-width:4.5;stroke-linecap:round;stroke-miterlimit:10;}
	.st5{fill:none;stroke:#000000;stroke-miterlimit:10;}
	.st6{fill:#999999;stroke:#231F20;stroke-linecap:round;stroke-miterlimit:10;}
	.st7{fill:#E6E6E6;stroke:#666666;stroke-miterlimit:10;}
	.st8{fill:url(#SVGID_1_);stroke:#666666;stroke-miterlimit:10;}
	.st9{fill:#999999;stroke:#666666;stroke-linecap:round;stroke-miterlimit:10;}
	.st10{fill:#E6E6E6;stroke:#FFFFFF;stroke-miterlimit:10;}
	.st11{fill:#E6E6E6;stroke:#000000;stroke-miterlimit:10;}
	.st12{fill:#E6E7E8;stroke:#231F20;stroke-linecap:round;stroke-miterlimit:10;}
	.st13{fill:none;stroke:#231F20;stroke-miterlimit:10;}
	.st14{fill:#E6E7E8;stroke:#FFFFFF;stroke-miterlimit:10;}
	.st15{fill:none;stroke:#FFFFFF;stroke-miterlimit:10;}
	.st16{fill:#F664AA;stroke:#FFFFFF;stroke-miterlimit:10;}
	.st17{fill:#FFFFFF;stroke:#FFFFFF;stroke-miterlimit:10;}
	.st18{fill:#72BAE2;stroke:#FFFFFF;stroke-miterlimit:10;}
	.st19{fill:#72BAE2;stroke:#FFFFFF;stroke-linecap:round;stroke-miterlimit:10;}
</style>
<g id="Body" class="st0">
</g>
<g id="Eyes">
</g>
<g id="Astro_Helmet">
</g>
<g id="Book">
</g>
<g id="Hands">
	<g>
		<g>
			<path class="st1" d="M1222.66,705.74c-5.32-9.27,3.04-17.57,3.77-32.99c0.09-1.82,0.62-18.24-10.12-31.42
				c-2.87-3.52-8.78-10.77-17.92-12.21c-5.59-0.88-10.57,0.7-10.95-0.5c-0.42-1.31,5.64-2.92,10.12-7.13
				c9.38-8.84,10.33-27.73,3.32-39.82c-4.76-8.2-11.78-12.94-11.78-12.94c-5.17-3.49-10.45-4.99-12.94-10.62
				c-0.81-1.82-1.14-3.66-1.44-5.34c-1.27-7.06,0.47-10.56-0.88-11.42c-1.83-1.16-7.96,3.42-12.28,9.62
				c-7.31,10.5-7.15,22.32-6.97,29.2c0.37,13.94,4.91,25.15,8.9,32.55l0.08,0.16c3.04,5.87,9.56,16.54,2.96,16.23
				c-3.35-0.16-39.05,1.18-43.8,0.66c-23.6-2.56-20.37-1.57-27.21-3.32c-16-4.08-21.24-6.25-29.2-11.28
				c-4.47-2.83-13.88-10.06-21.24-21.23c-5.85-8.9-3.3-26.64-2.62-37.27c2.08-32.46,2.88-50.98,3.22-68.85
				c0.81-42.5-4.4-69.39-15.42-101.37c-24.92-72.32-112.1-150.99-209.98-149.6c-126.17,1.8-225.54,136.03-225.54,265.26
				c0,148.16,131.26,261.71,225.54,265.26c40.03,1.51,109.62-15.46,135.55-21.79c26.24-6.4,49.19-12.1,78.79-24.37
				c34.57-14.33,62.2-30.99,95.56-51.1c12.4-7.47,28.29-17.55,37.13-23.25c5.07-3.26,8.67-7.76,9.82-1.84
				c0.49,2.53-0.1,8.99,0.02,18.65c0.17,14.45,11.74,28.06,18.95,35.19c6.3,6.24,12,9.4,16.06,11.18
				c5.59,2.45,13.94,4.84,15.08,2.83C1228.03,711.53,1224.76,709.4,1222.66,705.74z"/>
			<path class="st2" d="M762.64,554.99c27.58-0.82,48.11,7.66,55.51,11.04c23.09,10.55,36.49,25.39,45.36,35.41
				c22.25,25.16,32.35,52.14,37.16,70.34c1.38,10.32,5.9,32.41,23.53,50.76c5.75,5.99,17.21,17.92,33.97,19.71
				c10.08,1.07,17.77-1.99,17.84-1.69c0.23,1.15-42.85,9.81-75.78,17.52c-5.08,1.19-18.26,4.26-36.32,6.65
				c-1.23,0.16-2.31,0.29-3.28,0.41c-12.56,1.49-25.18,2.98-40.32,2.23c-24.74-1.23-43.14-7.81-53.25-11.52
				c-23.25-8.52-52.27-19.16-74.99-47.78c-8.68-10.94-30.11-37.92-26.31-74.78c0.72-6.94,4.11-31.48,23.89-51.76
				C714.13,556.43,746.53,555.47,762.64,554.99z"/>
			<ellipse class="st3" cx="725.5" cy="438.5" rx="69" ry="72"/>
			<ellipse class="st3" cx="887.5" cy="438.5" rx="69" ry="72"/>
			<polyline class="st3" points="794.5,438.5 817.88,438.5 817.88,438.5 			"/>
			<path class="st4" d="M686.99,442.18c1.81-19.92,18.51-35.45,38.49-35.83c20.02-0.37,37.32,14.6,39.82,34.5"/>
			<path class="st4" d="M852.23,442.18c1.81-19.92,18.51-35.45,38.49-35.83c20.02-0.37,37.32,14.6,39.82,34.5"/>
			<path class="st5" d="M787.75,503.97c-1.14,13.51,9.9,23.79,20.16,23.07c10.02-0.7,19.37-11.91,16.92-24.88"/>
		</g>
		<path class="st6" d="M894.7,679.53"/>
		<path class="st6" d="M552.51,559.19"/>
		<g>
			<path id="XMLID_00000160178367087712284530000003718647538643257476_" class="st7" d="M587.19,507.95
				c-5.72,5.85-3.58,40.12,0.71,47.26c8.98,22.1,26.28,39.53,46.98,52.25c22.43,13.78,45.02,19.15,67.38,23.95
				c2.61,0.56,16.44,3.49,35.03,5.53c16.54,1.82,29.6,2.14,35.97,2.22c10.43,0.12,18.47-0.24,25.38-0.55
				c3.37-0.15,13.25-0.63,26.36-1.81c10.35-0.94,25.33-2.56,43.44-5.47c13.91-2.24,23.37-3.76,36.36-6.98
				c10.51-2.61,22.7-5.68,38.05-12.01c17.23-7.1,29.39-14.55,33.25-16.97c6.75-4.23,19.47-12.32,33.01-25.65
				c11.29-11.11,34.34-33.8,40.44-67.15c2.28-12.48,2.15-26.24,0.62-26.43c-1.07-0.13-1.33,9.95-7.36,23.51
				c-12.46,33.18-64.04,65.01-84.06,73.11C862.63,619.61,625.69,638.96,587.19,507.95z"/>
		</g>
		<linearGradient id="SVGID_1_" gradientUnits="userSpaceOnUse" x1="580.5455" y1="394.5978" x2="1052.4457" y2="394.5978">
			<stop  offset="0" style="stop-color:#000000;stop-opacity:0"/>
			<stop  offset="0" style="stop-color:#090509;stop-opacity:1.534736e-03"/>
			<stop  offset="0" style="stop-color:#311B32;stop-opacity:9.289924e-03"/>
			<stop  offset="0" style="stop-color:#562F58;stop-opacity:0.018"/>
			<stop  offset="0" style="stop-color:#764178;stop-opacity:0.0275"/>
			<stop  offset="0" style="stop-color:#914F94;stop-opacity:0.038"/>
			<stop  offset="0" style="stop-color:#A65BAA;stop-opacity:0.0498"/>
			<stop  offset="0" style="stop-color:#B764BB;stop-opacity:0.0636"/>
			<stop  offset="0" style="stop-color:#C36AC6;stop-opacity:0.0806"/>
			<stop  offset="0" style="stop-color:#C96ECD;stop-opacity:0.1046"/>
			<stop  offset="0" style="stop-color:#CB6FCF;stop-opacity:0.1711"/>
		</linearGradient>
		<path class="st8" d="M1045.7,492.91c-49.96,129.69-389.17,160.85-450.28,36.64c-51.35-104.37,34.49-331.61,192.44-347.72
			C948.94,166.58,1084.69,382.98,1045.7,492.91z"/>
		<g>
			<path id="XMLID_00000076574898180278998290000004512597787997723776_" class="st7" d="M584.1,535.5
				c-18.67,57.3,31.75,93.28,82.27,113.72c150.18,60.77,361.29-13.29,380.87-103.36c2.93-13.47,4.74-42.86,2.3-43.29
				c-1.98-0.35-3.65,18.97-17.33,40.56c-8.88,14.02-19.25,23.34-27.79,31.03c-4,3.6-14.02,12.31-28.33,21.22
				c-7.95,4.94-14.61,8.32-19.34,10.7c-4.67,2.35-13.16,6.61-23.95,10.74c-16.14,6.18-29.1,8.91-40.08,11.17
				c-11.83,2.44-20.09,3.48-34.51,5.31c-16.72,2.12-13.8,1.17-48.48,4.7c-12.55,1.28-17.98,1.92-26.94,1.94
				c-7.85,0.02-13.76-0.45-24.78-1.32c-10.23-0.81-19.73-1.84-28.53-2.99c-10.1-1.31-17.68-2.3-27.21-4.21
				c-7.68-1.54-19.83-4.02-34.84-9.4c-11.91-4.27-24.88-9.02-39.48-19.24c-11.29-7.91-18.29-15.4-20.57-17.92
				c-3.58-3.95-8.65-9.6-13.27-17.92C590.68,560.82,585.82,550.2,584.1,535.5z"/>
		</g>
		<path class="st9" d="M594.98,597.68"/>
		<path class="st9" d="M622.4,610.07"/>
		<path class="st9" d="M723.71,656.08"/>
		<path class="st6" d="M1092.67,490.85"/>
		<path class="st10" d="M1133.59,372.5"/>
		<path class="st11" d="M1055.29,504.56"/>
		<path class="st11" d="M1058.27,497.92"/>
		<path class="st12" d="M757.33,264.34"/>
		<path class="st12" d="M819.86,645.26"/>
		<path class="st12" d="M548.48,888.89"/>
		<path class="st13" d="M627.27,371.18"/>
		<g>
			<path class="st14" d="M573.2,582.67"/>
			<path class="st15" d="M730.48,704.65"/>
			<path class="st16" d="M579.5,519.78c59.91,29.51,119.81,59.02,179.72,88.52c11.95-0.02,22.04-0.03,33.99-0.04
				c59-29.25,118-58.51,177-87.76l-0.44,233.07c-59,29.37-118,58.75-177,88.12c-11.98,0.03-22.09,0.05-34.07,0.08
				c-59.73-29.4-119.47-58.8-179.2-88.2V519.78z"/>
			<path class="st14" d="M838.87,859.31"/>
			<path class="st14" d="M622.1,489.57"/>
			<path class="st17" d="M758.24,606.99L580.8,520.39l-1.1-0.53c3.37,1.35,9.66,3.43,17.92,3.56c9.22,0.15,16.22-2.18,19.67-3.56
				c46.91,22.22,93.82,44.43,140.72,66.65h34.96l140.29-66.65c2.05,0.94,10.21,1.85,13.11,2.49c10.7,2.39,20.06-0.37,24.04-1.78
				c-59,28.99-118,57.98-177,86.96c-12.09-0.36-24.18-0.71-36.27-1.07l36.27,1.07"/>
			<line class="st17" x1="757.5" y1="606" x2="758.37" y2="841"/>
			<line class="st16" x1="793.5" y1="607" x2="793.06" y2="842"/>
		</g>
		<ellipse class="st18" cx="960" cy="630.5" rx="29.5" ry="46"/>
		<ellipse class="st19" cx="573.5" cy="639" rx="24" ry="43.5"/>
	</g>
</g>
</svg>
